<?xml version="1.0" standalone="no"?>
<!DOCTYPE svg PUBLIC "-//W3C//DTD SVG 20010904//EN"
 "http://www.w3.org/TR/2001/REC-SVG-20010904/DTD/svg10.dtd">
<svg version="1.0" xmlns="http://www.w3.org/2000/svg"
 width="899.000000pt" height="472.000000pt" viewBox="0 0 899.000000 472.000000"
 preserveAspectRatio="xMidYMid meet">

<g transform="translate(0.000000,472.000000) scale(0.100000,-0.100000)"
fill="#6a50a7" stroke="none">
<path d="M8895 4672 c-48 -25 -100 -67 -166 -132 -132 -131 -226 -274 -424
-650 -232 -440 -432 -761 -611 -984 -201 -250 -642 -703 -835 -858 -368 -294
-740 -444 -1259 -507 -513 -62 -1099 -54 -2185 30 -845 66 -1505 -48 -2122
-366 -494 -254 -936 -661 -1246 -1147 l-37 -58 4490 0 4490 0 0 2355 c0 1877
-3 2355 -12 2355 -7 0 -44 -17 -83 -38z"/>
</g>
</svg>
